<?xml version="1.0" encoding="UTF-8"?>
<svg id="Layer_2" data-name="Layer 2" xmlns="http://www.w3.org/2000/svg" width="56.2" height="44.1" viewBox="0 0 56.2 44.1">
  <defs>
    <style>
      .cls-1, .cls-2 {
        stroke-width: 0px;
      }

      .cls-2 {
        fill: #fff;
      }
    </style>
  </defs>
  <rect class="cls-2" x="9.6" y="11.59" width="32.57" height="24.09"/>
  <rect class="cls-2" x="23.9" y="9.72" width="14.74" height="16.72"/>
  <polygon class="cls-2" points="45.8 4.3 35.57 11.59 42.61 13.57 45.8 4.3"/>
  <path class="cls-1" d="m49.9,28.2l6.2-4-6.5-3.9,4.2-6.1-5.8-.7,2.1-7.2-5.5,2.6L49.7,0l-9.8,7.2-1.8-1.9-4.8,3.6-5.1-4.3-5.2,4.4-4.9-3.8-3.8,4.6-8.2-3.7,2.3,7.6-5.9.5,4.2,6.1-6.7,3.9,6.6,4.3-4,6.2,5.9.3-2.2,7.3,8.1-3.5,3.8,4.6,4.8-3.6,5.2,4.3,5.1-4.3,5,3.7,3.6-4.5,8.5,3.5-2.5-7.5,5.9-.4-3.9-6.4Zm-19.2,1.6l-2.8-7.1-15.1,12.8,15.2-25.5.1-.1,2.5,6.2,15.2-11.8-15.1,25.5Z"/>
</svg>